<?xml version="1.0" encoding="UTF-8" standalone="no"?>
<!-- Created with Inkscape (http://www.inkscape.org/) -->

<svg
   xmlns:dc="http://purl.org/dc/elements/1.1/"
   xmlns:cc="http://creativecommons.org/ns#"
   xmlns:rdf="http://www.w3.org/1999/02/22-rdf-syntax-ns#"
   xmlns:svg="http://www.w3.org/2000/svg"
   xmlns="http://www.w3.org/2000/svg"
   xmlns:sodipodi="http://sodipodi.sourceforge.net/DTD/sodipodi-0.dtd"
   xmlns:inkscape="http://www.inkscape.org/namespaces/inkscape"
   width="744.09448819"
   height="1052.3622047"
   id="svg3644"
   version="1.1"
   inkscape:version="0.47 r22583"
   sodipodi:docname="якорь.svg">
  <defs
     id="defs3646">
    <inkscape:perspective
       sodipodi:type="inkscape:persp3d"
       inkscape:vp_x="0 : 526.18109 : 1"
       inkscape:vp_y="0 : 1000 : 0"
       inkscape:vp_z="744.09448 : 526.18109 : 1"
       inkscape:persp3d-origin="372.04724 : 350.78739 : 1"
       id="perspective3652" />
    <inkscape:perspective
       id="perspective3639"
       inkscape:persp3d-origin="0.5 : 0.33333333 : 1"
       inkscape:vp_z="1 : 0.5 : 1"
       inkscape:vp_y="0 : 1000 : 0"
       inkscape:vp_x="0 : 0.5 : 1"
       sodipodi:type="inkscape:persp3d" />
  </defs>
  <sodipodi:namedview
     id="base"
     pagecolor="#ffffff"
     bordercolor="#666666"
     borderopacity="1.0"
     inkscape:pageopacity="0.0"
     inkscape:pageshadow="2"
     inkscape:zoom="1.0527344"
     inkscape:cx="189.29314"
     inkscape:cy="520"
     inkscape:document-units="px"
     inkscape:current-layer="layer1"
     showgrid="false"
     inkscape:window-width="1920"
     inkscape:window-height="1005"
     inkscape:window-x="0"
     inkscape:window-y="25"
     inkscape:window-maximized="1" />
  <metadata
     id="metadata3649">
    <rdf:RDF>
      <cc:Work
         rdf:about="">
        <dc:format>image/svg+xml</dc:format>
        <dc:type
           rdf:resource="http://purl.org/dc/dcmitype/StillImage" />
        <dc:title></dc:title>
      </cc:Work>
    </rdf:RDF>
  </metadata>
  <g
     inkscape:label="Layer 1"
     inkscape:groupmode="layer"
     id="layer1">
    <path
       style="fill:#000000;stroke:#ffffff;stroke-width:1px;stroke-linecap:butt;stroke-linejoin:miter;stroke-opacity:1"
       d="m 363.4375,196.54968 c -26.58803,0 -48.125,21.75516 -48.125,48.5625 0,20.88312 13.08827,38.65492 31.4375,45.5 -2.74832,8.32963 -3.4031,18.28512 -3.6875,26.96875 -100.52942,5.50024 -178.38563,16.70024 -177.96875,26.0625 0.41248,9.26342 77.34733,13.47849 176.4375,10.21875 -4.5793,130.49085 9.18793,262.23658 -15.84375,391.25 -38.98478,14.7091 -87.26966,23.2507 -124.0625,-1.53125 -13.90698,-9.77601 -25.16984,-30.31806 -30.6875,-47.65625 15.22325,2.25701 29.81103,8.64794 52.96875,4.625 -55.36991,-35.83829 -73.3007,-78.95044 -44.09375,-131.25 -78.18026,37.57561 -54.43303,126.44048 -79.34375,158.6875 20.95319,-19.46906 36.06896,-28.089 48.71875,-31.25 2.239,34.6583 31.93876,65.4869 61.6875,78.375 57.25174,26.4845 123.1252,42.5674 167.21875,90.8125 l 0.0625,2.25 c 41.80031,-50.6006 107.10057,-69.7399 163.25,-98.9375 29.12124,-14.2493 57.36535,-46.4315 58,-81.15625 12.78238,2.57293 28.29432,10.48899 50.125,28.96875 -26.37459,-31.06115 -6.76025,-120.9219 -86.59375,-154.84375 31.5931,50.89368 15.68549,94.79699 -37.96875,133.15625 23.31892,2.94826 37.58484,-4.13551 52.6875,-7.09375 -4.71037,17.5747 -15.02849,38.62289 -28.46875,49.03125 -35.60806,26.4561 -84.22077,20.1727 -123.84375,7.28125 -31.18826,-128.62646 -23.20874,-261.86948 -34.15625,-392.90625 100.02554,-5.52033 177.35294,-16.67006 176.9375,-26 -0.41763,-9.37912 -79.24375,-13.61554 -180.125,-10.125 -0.76248,-8.6523 -2.08449,-18.18407 -5.4375,-25.875 17.07909,-7.4526 29.03125,-24.60175 29.03125,-44.5625 0,-26.80734 -21.56822,-48.5625 -48.15625,-48.5625 z m -0.3125,18.53125 c 15.42106,0 27.90625,13.01336 27.90625,29.0625 0,15.02416 -10.95026,27.38862 -25,28.90625 -0.0205,0.002 -0.042,-0.002 -0.0625,0 -0.11241,0.012 -0.23249,0.0178 -0.34375,0.0312 -0.8268,0.0767 -1.654,0.125 -2.5,0.125 -15.42106,0 -27.90625,-13.01337 -27.90625,-29.0625 0,-16.04914 12.48519,-29.0625 27.90625,-29.0625 z"
       id="path2821" />
  </g>
</svg>
